<?xml version="1.0" standalone="no"?>
<!DOCTYPE svg PUBLIC "-//W3C//DTD SVG 20010904//EN"
 "http://www.w3.org/TR/2001/REC-SVG-20010904/DTD/svg10.dtd">
<svg version="1.0" xmlns="http://www.w3.org/2000/svg"
 width="16.000000pt" height="16.000000pt" viewBox="0 0 16.000000 16.000000"
 preserveAspectRatio="xMidYMid meet">
<metadata>
Created by potrace 1.11, written by Peter Selinger 2001-2013
</metadata>
<g transform="translate(0.000000,16.000000) scale(0.002589,-0.002589)"
fill="#000000" stroke="none">
<path d="M2897 6015 c-299 -49 -544 -177 -745 -390 -219 -231 -331 -496 -358
-846 l-5 -77 -62 19 c-203 61 -479 65 -692 10 -490 -126 -860 -530 -950 -1034
-26 -143 -17 -395 18 -527 84 -323 275 -592 545 -773 67 -45 216 -118 290
-142 28 -9 52 -18 52 -19 0 -2 -21 -34 -46 -72 -95 -142 -169 -326 -199 -498
-19 -114 -19 -325 1 -440 71 -410 331 -756 709 -944 350 -173 777 -174 1130
-2 171 84 365 241 460 374 22 30 42 56 45 56 3 0 23 -25 45 -56 51 -71 190
-206 277 -267 261 -186 609 -269 928 -223 495 73 904 420 1054 895 56 176 72
425 41 607 -30 172 -104 356 -199 498 -25 38 -46 70 -46 72 0 1 29 12 64 24
77 25 211 92 287 142 287 192 494 511 553 853 22 127 21 339 -3 463 -86 441
-386 803 -803 968 -245 97 -583 111 -835 35 l-62 -19 -5 77 c-27 348 -140 616
-358 846 -181 192 -402 316 -668 376 -116 26 -346 33 -463 14z m393 -231 c420
-79 757 -409 846 -828 20 -93 28 -228 20 -307 -6 -58 -11 -67 -35 -82 -103
-61 -253 -201 -341 -318 -72 -96 -150 -248 -191 -370 -17 -52 -33 -96 -35 -98
-1 -2 -42 13 -89 34 -133 57 -253 78 -410 72 -148 -6 -243 -27 -358 -80 l-75
-35 -48 27 c-179 98 -340 263 -433 446 -322 629 38 1388 729 1535 109 24 308
26 420 4z m-1805 -1245 c97 -12 221 -45 297 -79 44 -19 48 -24 63 -78 57 -201
162 -385 309 -540 67 -70 192 -173 244 -201 23 -12 23 -12 -29 -69 -183 -199
-277 -480 -249 -747 11 -105 14 -100 -115 -198 -102 -77 -253 -150 -380 -184
-89 -24 -118 -27 -265 -27 -146 0 -176 3 -262 27 -187 50 -351 143 -486 275
-281 275 -386 680 -276 1058 144 498 638 826 1149 763z m3586 -23 c199 -50
341 -129 490 -273 341 -329 424 -834 206 -1257 -103 -200 -257 -352 -462 -458
-92 -47 -237 -98 -280 -98 -13 0 -55 24 -95 54 -212 159 -507 256 -781 256
l-94 0 0 173 c0 132 -4 187 -17 234 -47 170 -123 311 -230 428 l-51 56 25 103
c105 424 451 736 894 806 97 15 286 4 395 -24z m-1804 -871 c228 -53 428 -227
521 -454 75 -184 65 -425 -25 -606 -100 -200 -289 -349 -505 -400 -91 -21
-258 -19 -351 4 -331 85 -566 385 -567 724 -1 383 282 699 670 750 54 8 188
-2 257 -18z m1114 -1155 c201 -43 372 -135 520 -280 109 -108 162 -182 225
-314 137 -290 135 -618 -5 -911 -136 -284 -387 -491 -699 -576 -99 -26 -308
-36 -424 -20 -148 22 -314 87 -442 174 -117 79 -266 238 -318 341 l-20 39 25
76 c95 288 96 568 2 848 -14 42 -24 77 -22 79 2 2 35 10 74 18 257 54 500 229
624 447 55 96 47 91 140 99 108 9 212 2 320 -20z m-2103 -110 c137 -214 374
-374 624 -420 l67 -12 30 -72 c86 -210 110 -394 76 -602 -72 -444 -417 -796
-862 -880 -121 -22 -335 -16 -451 15 -313 82 -566 290 -703 576 -183 382 -125
827 149 1153 l45 53 51 -6 c69 -9 260 10 365 36 167 42 356 133 481 232 l55
44 19 -31 c10 -17 35 -56 54 -86z"/>
</g>
</svg>
